HIERARCHY
ROOT Hips
{
   OFFSET 0.00000 0.00000 0.00000
   CHANNELS 6 Xposition Yposition Zposition Zrotation Xrotation Yrotation
   JOINT RightUpLeg
   {
      OFFSET -11.629540 -11.267191 0.132148
      CHANNELS 3 Zrotation Xrotation Yrotation
      JOINT RightLeg
      {
         OFFSET 0.000000 -57.749504 1.784510
         CHANNELS 3 Zrotation Xrotation Yrotation
         JOINT RightFoot
         {
            OFFSET 0.329614 -54.720115 -1.898767
            CHANNELS 3 Zrotation Xrotation Yrotation
            JOINT RightToes
            {
               OFFSET 0.052000 -5.739617 11.048829
               CHANNELS 3 Zrotation Xrotation Yrotation
               End Site
               {
                  OFFSET -0.104000 -0.178682 12.713727
               }
            }
         }
      }
   }
   JOINT Spine
   {
      OFFSET 0.000000 15.457650 0.000000
      CHANNELS 3 Zrotation Xrotation Yrotation
      JOINT Spine1
      {
         OFFSET 0.000000 33.354620 0.165962
         CHANNELS 3 Zrotation Xrotation Yrotation
         JOINT HEad
         {
            OFFSET 0.000000 11.354408 0.014743
            CHANNELS 3 Zrotation Xrotation Yrotation
            End Site
            {
               OFFSET -0.377000 16.606459 3.268135
            }
         }
         JOINT LeftShoulder1
         {
            OFFSET 11.687000 -0.470928 -0.286000
            CHANNELS 3 Zrotation Xrotation Yrotation
            JOINT LeftArm
            {
               OFFSET 13.367510 -0.004394 0.418760
               CHANNELS 3 Zrotation Xrotation Yrotation
               JOINT LeftForeArm
               {
                  OFFSET 42.596969 0.128887 -1.851642
                  CHANNELS 3 Zrotation Xrotation Yrotation
                  JOINT LeftHand
                  {
                     OFFSET 35.833589 0.110971 1.328808
                     CHANNELS 3 Zrotation Xrotation Yrotation
                     End Site
                     {
                        OFFSET 21.767590 -0.780000 1.953783
                     }
                  }
               }
            }
         }
         JOINT RightShoulder
         {
            OFFSET -11.687000 -0.470928 -0.286000
            CHANNELS 3 Zrotation Xrotation Yrotation
            JOINT RightArm
            {
               OFFSET -13.367510 -0.004394 0.418760
               CHANNELS 3 Zrotation Xrotation Yrotation
               JOINT RightForeArm
               {
                  OFFSET -42.766227 0.128887 -1.851642
                  CHANNELS 3 Zrotation Xrotation Yrotation
                  JOINT RightHand
                  {
                     OFFSET -35.739729 0.110971 1.328808
                     CHANNELS 3 Zrotation Xrotation Yrotation
                     End Site
                     {
                        OFFSET -21.620562 -0.780000 1.953783
                     }
                  }
               }
            }
         }
      }
   }
   JOINT LeftUpLeg
   {
      OFFSET 11.629540 -11.267191 0.132148
      CHANNELS 3 Zrotation Xrotation Yrotation
      JOINT LeftLeg
      {
         OFFSET 0.000000 -57.749504 1.784510
         CHANNELS 3 Zrotation Xrotation Yrotation
         JOINT LeftFoot
         {
            OFFSET -0.329614 -54.720115 -1.898767
            CHANNELS 3 Zrotation Xrotation Yrotation
            JOINT LeftToes
            {
               OFFSET -0.052000 -5.739617 11.048829
               CHANNELS 3 Zrotation Xrotation Yrotation
               End Site
               {
                  OFFSET 0.104000 -0.061682 12.713727
               }
            }
         }
      }
   }
}
MOTION
Frames: 8
Frame Time: 0.016667
-285.182586 115.227659 37.502541 -15.298932 52.167913 -154.443432 -3.622504 32.934978 63.641428 28.811565 31.878224 28.637269 -40.238024 42.961326 -13.344202 1.821097 -18.683016 -24.764989 51.857962 34.026674 124.424805 20.546471 -6.769513 -125.467802 -17.796244 50.865696 63.476425 -44.269106 81.832503 -19.484132 231.741297 162.487714 195.882176 -14.325074 265.105050 -69.767418 -60.931544 -41.114327 -51.629410 -103.233494 279.807059 224.780023 118.069778 261.672361 410.968712 17.669752 207.753113 67.789935 -35.588308 -22.206272 33.197530 35.028700 16.406654 47.955612 10.545868 24.311976 59.581291 -35.538611 55.007127 -19.738299 43.295043 -14.294746 -57.798727
-282.180343 114.152592 38.345098 -16.017753 51.811179 -155.414766 -4.644970 34.987227 68.672846 30.392259 28.419550 16.633071 -43.585336 40.276208 -12.544228 1.099858 -18.156154 -22.639809 46.027794 42.567962 130.070434 12.625464 -7.970137 -126.998871 -22.237766 48.529153 65.309251 -54.164363 91.165533 -0.506571 231.818970 171.809365 194.186048 -17.946786 259.853427 -73.970867 -56.990559 -43.078126 -48.862801 -99.172530 278.104676 229.184812 130.765734 264.452903 424.053852 19.699287 201.161201 66.578130 -33.742876 -20.250261 31.569175 35.135897 16.746034 49.682120 11.604038 23.660525 53.013463 -34.938217 53.791097 -21.097445 44.062910 -13.925922 -58.530350
-279.266678 113.116654 39.016320 -19.027184 54.127863 -154.491721 -5.941950 39.781173 71.488516 34.654911 27.735986 4.726743 -49.905242 35.559105 -13.109665 0.013733 -19.487440 -21.865391 44.769322 52.495878 135.691858 10.587203 -4.777105 -129.940510 -27.988244 40.599816 68.197342 -64.318997 104.648265 28.254187 230.132951 180.553401 190.018021 -23.293778 251.043794 -78.876835 -53.960714 -44.696963 -53.369367 -87.416798 275.238319 234.143529 145.784254 271.074198 442.489215 19.975926 196.338241 66.386413 -30.180157 -20.635200 30.234539 35.508084 20.162020 50.853552 13.350969 23.254842 44.634118 -35.145708 52.133714 -22.456661 44.919268 -13.692789 -59.488093
-276.641765 111.994684 39.487657 -21.362339 58.199762 -153.941563 -6.720632 44.735355 75.317862 37.376216 24.171852 -4.042729 -50.926567 33.437393 -11.231899 -0.366900 -19.561225 -20.222401 43.653225 61.017987 142.187285 14.496730 -3.675276 -130.842751 -28.201204 33.163020 69.896051 -74.031034 109.679458 58.821698 232.575427 188.061964 184.197812 -28.375425 245.570108 -83.997660 -50.622538 -44.894014 -52.967379 -74.559253 273.045500 239.821739 164.519409 281.792759 463.944042 20.288276 193.885056 67.544089 -29.713782 -22.082347 33.656898 35.840369 24.189373 51.062945 15.774237 20.390434 38.227046 -34.771520 50.514344 -22.863215 45.351056 -14.215744 -60.376113
-274.372402 110.935248 39.841003 -23.226239 62.450674 -151.304632 -6.076510 50.097672 79.241123 39.211317 19.233044 -10.096868 -52.480759 31.170084 -9.272290 -0.403483 -19.337261 -18.636981 43.183301 65.011421 146.011823 21.180434 -7.419441 -129.581160 -25.450455 23.896588 71.177497 -85.758257 107.275791 88.575833 241.304682 197.344396 181.296197 -33.103581 244.335975 -87.118052 -48.837287 -44.215947 -55.270990 -57.679465 267.248555 254.218411 187.253816 295.593102 487.875986 21.602898 193.218402 70.303567 -28.692723 -21.554149 34.324706 36.813535 26.981993 51.767267 16.910565 15.956995 33.794598 -34.033504 48.574157 -22.222041 45.393222 -15.305178 -60.947738
-272.203308 110.050972 40.155401 -24.327877 64.694042 -150.741674 -4.048587 52.504689 81.691351 39.721925 17.420662 -14.180467 -52.508903 31.103158 -8.431349 -0.670198 -19.401101 -17.480232 39.381119 64.185815 149.537115 31.724535 -12.108360 -126.149031 -21.785180 13.054426 72.427169 -97.252209 103.184166 115.825720 248.631481 208.670571 183.443240 -36.814064 243.081351 -90.737123 -46.000341 -43.550085 -54.395466 -44.516345 259.117050 268.535827 208.960239 308.833150 510.324195 22.463495 196.220857 72.517068 -27.366200 -22.401631 35.391124 37.049337 29.524299 52.161827 17.245738 13.088579 29.449419 -33.782689 46.353523 -22.519912 45.586923 -16.364005 -61.564006
-270.238663 109.314612 40.432109 -23.321874 67.233418 -154.176494 -7.585261 53.900148 83.367520 39.873493 15.971192 -14.712074 -53.388054 29.528328 -6.641266 -1.388706 -20.627497 -15.276722 43.825772 65.865563 153.188821 40.357846 -20.897621 -125.143546 -18.945527 1.727316 73.919285 -99.266725 98.126384 134.191524 256.784568 226.429008 188.756198 -39.062405 241.016694 -89.831283 -43.070790 -43.115555 -55.186894 -29.114515 259.768186 292.943043 217.768055 317.276985 513.148779 26.700169 198.368979 72.290804 -25.419637 -19.138363 34.201680 38.560147 32.944963 52.317282 17.685998 13.541424 27.259572 -33.607580 43.353553 -23.492651 45.712622 -17.443289 -61.805781
-268.571697 108.849448 40.688023 -20.762752 68.039367 -158.127116 -8.993323 53.012114 83.354372 39.680828 15.453183 -13.776125 -51.665716 28.292962 -5.321963 -2.485548 -22.411977 -12.659499 45.198094 64.871641 154.582358 46.111427 -27.404618 -119.573103 -16.392123 -8.316038 75.338305 -101.925315 92.850787 151.211167 268.269941 242.945703 198.711213 -40.038104 240.341325 -86.981872 -40.165177 -42.352883 -53.960779 -20.497999 259.374958 306.153094 220.108460 325.699346 511.131469 28.486487 202.746010 71.769654 -24.218623 -16.715812 34.492110 40.054579 34.593696 52.140291 18.444632 15.403844 26.514277 -33.788860 40.578246 -25.373468 45.903003 -17.828834 -61.832043
